<?xml version="1.0" encoding="UTF-8"?><svg id="_層_2" xmlns="http://www.w3.org/2000/svg" xmlns:xlink="http://www.w3.org/1999/xlink" viewBox="0 0 1920 8771"><defs><style>.cls-1{fill:url(#_命名漸層_67);}.cls-2{fill:url(#_命名漸層_60);}.cls-3{fill:#fed52b;}.cls-4{fill:url(#_命名漸層_57);}.cls-5{fill:url(#_命名漸層_74);}.cls-6{fill:#f09ec1;}.cls-7{fill:url(#_命名漸層_50);}.cls-8{fill:#4abeee;}.cls-9{fill:url(#_命名漸層_54);}.cls-10{fill:url(#_命名漸層_73);}.cls-11{fill:#eb7317;}</style><linearGradient id="_命名漸層_67" x1="1528.35" y1="6580.38" x2="2160.38" y2="6575.51" gradientTransform="matrix(1, 0, 0, 1, 0, 0)" gradientUnits="userSpaceOnUse"><stop offset="0" stop-color="#ffde9c"/><stop offset=".58" stop-color="#ff5745"/></linearGradient><linearGradient id="_命名漸層_60" x1="1529.1" y1="6608.19" x2="2161.54" y2="6603.32" gradientTransform="matrix(1, 0, 0, 1, 0, 0)" gradientUnits="userSpaceOnUse"><stop offset="0" stop-color="#ffde9c"/><stop offset=".58" stop-color="#ff9b1d"/></linearGradient><linearGradient id="_命名漸層_57" x1="1529.44" y1="6623.24" x2="2148.77" y2="6618.47" gradientTransform="matrix(1, 0, 0, 1, 0, 0)" gradientUnits="userSpaceOnUse"><stop offset="0" stop-color="#ffde9c"/><stop offset=".58" stop-color="#f2d73d"/></linearGradient><linearGradient id="_命名漸層_54" x1="1528.38" y1="6641.74" x2="2134.84" y2="6637.07" gradientTransform="matrix(1, 0, 0, 1, 0, 0)" gradientUnits="userSpaceOnUse"><stop offset="0" stop-color="#ffde9c"/><stop offset=".58" stop-color="#6abf58"/></linearGradient><linearGradient id="_命名漸層_50" x1="1527.89" y1="6651.7" x2="2099.42" y2="6647.3" gradientTransform="matrix(1, 0, 0, 1, 0, 0)" gradientUnits="userSpaceOnUse"><stop offset="0" stop-color="#ffde9c"/><stop offset=".58" stop-color="#83dfd0"/></linearGradient><linearGradient id="_命名漸層_74" x1="1516.47" y1="6672.18" x2="2098.03" y2="6667.71" gradientTransform="matrix(1, 0, 0, 1, 0, 0)" gradientUnits="userSpaceOnUse"><stop offset="0" stop-color="#ffde9c"/><stop offset=".1" stop-color="#fada9e"/><stop offset=".21" stop-color="#eecea5"/><stop offset=".31" stop-color="#d9bbb1"/><stop offset=".42" stop-color="#bda1c2"/><stop offset=".53" stop-color="#987fd8"/><stop offset=".58" stop-color="#836ce5"/></linearGradient><linearGradient id="_命名漸層_73" x1="1514.33" y1="6682.58" x2="2068.95" y2="6678.32" gradientTransform="matrix(1, 0, 0, 1, 0, 0)" gradientUnits="userSpaceOnUse"><stop offset="0" stop-color="#ffde9c"/><stop offset=".11" stop-color="#fdd99f"/><stop offset=".22" stop-color="#f7cda8"/><stop offset=".34" stop-color="#efb8b7"/><stop offset=".45" stop-color="#e39ccd"/><stop offset=".52" stop-color="#da87dd"/></linearGradient></defs><g><path class="cls-11" d="M1724.83,6483.15c-2.4,.68-5.49,.94-6.76,1.99,0,1.23,.27,2.2,.53,3.62,.29,1.38,.36,2.92,1.06,3.98,1.13,.06,2.47-.22,3.94-.42,1.26-.15,2.89-.47,3.35,.5,.57,1.28,.39,2.4-.55,2.81-1.27,.6-5.08,.62-5.83,1.88-.37,.64,.13,2.57,.29,3.38,.48,2.3,.81,3.56-.29,4.86-.29,.33-.61,.85-1.46,.87-1.99,.07-1.7-3.53-2.24-5.96-.95-4.27-1.59-8.2-2.62-12.66-.41-1.54-.82-3.59-.74-4.5,.18-1.9,2.56-2.17,4.5-2.75,1.35-.4,3.3-.79,4.95-1.04,1.58-.23,3.19-.8,4.68-.45,1.62,2.1-.76,3.34-2.82,3.9Z"/><path class="cls-3" d="M1747.81,6477.26c3.24,2.18,4.57,6.74,4.62,10.55,.04,3.15-.12,4.31-1.03,6.38-1.55,3.9-4.52,6.34-8.89,7.15-3.24,.54-5.41-.73-7.12-2.55-1.94-2.04-2.76-3.36-3.21-7.17-.51-4.31-.01-8.14,1.83-10.59,1.35-2.33,3.49-4.32,6.43-4.88,2.3-.44,5.53-.46,7.38,1.11Zm-11,15.55c.57,1.95,3.29,4.29,4.99,4.58,2.87,.45,4.84-1.88,5.53-3.54,.94-2.15,.95-5.19,.6-7.58-.56-2.72-2.76-5.45-4.67-5.7-.9-.13-2.06-.22-3.35,.12-1.57,.42-2.97,2.25-3.39,3.64-.48,1.62-.49,5.92,.29,8.49Z"/><path class="cls-8" d="M1762.75,6472.38c3.02,.64,6.36,.98,7.4,5.04,.91,3.53-.46,5.47-1.43,6.56-.39,.44-1.65,1.13-1.62,1.75,.01,.76,1.25,2,1.76,2.71,1.46,1.98,2.18,3.17,3.71,5.13,.64,.83,1.63,1.88,1.57,2.94-.1,1.36-2.19,2.18-3.51,1.67-.79-.27-1.44-1.51-1.92-2.14-1.17-1.68-1.93-3.23-3.29-5-.69-.61-1.03-1.66-1.9-2.03-.81-.13-2.13,.72-2.39,1.36-.36,1.89,.45,5.87-.25,7.69-.31,.8-1.78,1.91-3.12,1.26-1.38-.64-.89-3.06-.93-4.65-.04-2.28-.13-5-.36-7.59-.26-2.62-.42-5-.6-7.16-.16-2.02-.72-4.68-.28-5.96,.32-1.02,1.5-1.52,2.46-1.7,.78-.16,3.28-.19,4.7,.12Zm3.57,8.06c.09-1.1-.33-2.54-1.51-3.35-1.02-.68-4.11-.66-5.01-.26-.48,2.2,.32,6.32,.71,8.49,1.15-.09,2.16-1.15,3.08-1.99,.76-.63,2.57-1.64,2.72-2.89Z"/><path class="cls-11" d="M1779.73,6491.74c1.73-.03,3.13-.26,4.6-.49,1-.17,3.41-1.04,4.4-.77,.62,.14,1.31,1.26,.95,2.58-.47,1.84-2.56,2-4.46,2.15-2.2,.13-4.35,.4-6.43,.67-2.62,.37-2.78-.56-3.01-3.15-.11-1.22-.07-3.5-.04-4.95-.03-2.31-.01-5.64,.01-9.48-.08-1.95-.21-4.07,.53-4.99,.84-1.06,3.32-1.36,5.66-1.5,2.85-.13,5.41-.21,5.71,1.21,.15,1.29,.06,2.2-1.34,2.36-.39,.06-.9,.09-1.51,.13-1.69,.14-3.92,.31-4.65,.86-.42,.31-.45,.97-.47,1.8-.05,.91-.41,3.46,.36,4.14,.3,.24,.63,.29,1.06,.26,1.04-.06,2.45-.69,3.5-.75,.69-.04,1.28,.25,1.54,.99,.34,1.43-.48,2.2-1.37,2.54-.39,.09-.96,.2-1.57,.31-1.22,.22-2.79,.46-3.45,1-.41,.49-.39,1.43-.33,2.44,.05,.76,.1,1.62,.21,2.23,0,.14,.05,.25,.06,.36l.04,.03Z"/><path class="cls-11" d="M1797.01,6479.72c1.05,3.65,1.55,6.25,2.49,9.82,1.23-3.03,3.1-6.64,4.33-9.68,1.01-2.46,2.45-7.4,4.26-9.46,1.66-1.3,3.21,0,3.32,1.19,0,2.2-2.53,6.54-3.75,9.57-1.99,4.87-3.54,8.09-6.35,13.75-.58,.98-2.56,2.24-3.83,1.26-.47-.33-.61-1.62-.94-2.74-1.62-5.88-2.17-7.19-3.58-13.18-.29-1.05-1.59-5.81-1.37-6.61,.11-2.35,2.46-2.06,3.36-1.37,.69,1.16,1.7,6.1,2.06,7.44Z"/><path class="cls-6" d="M1817.68,6491.41c1.72,.18,3.14,.13,4.63,.08,1.02-.04,3.51-.6,4.46-.22,.6,.22,1.14,1.41,.62,2.68-.69,1.76-2.79,1.66-4.7,1.58-2.2-.14-4.37-.14-6.47-.13-2.64,.05-2.69-.9-2.6-3.5,.04-1.23,.37-3.49,.57-4.92,.26-2.3,.69-5.6,1.19-9.4,.16-1.94,.3-4.07,1.15-4.88,.97-.95,3.46-.93,5.8-.78,2.85,.22,5.4,.46,5.52,1.91-.01,1.3-.21,2.19-1.62,2.17-.4,0-.9-.02-1.52-.06-1.69-.07-3.93-.18-4.72,.27-.45,.26-.57,.9-.69,1.73-.17,.89-.83,3.38-.16,4.15,.27,.27,.59,.36,1.02,.39,1.04,.07,2.52-.38,3.57-.31,.68,.04,1.24,.41,1.41,1.18,.16,1.46-.75,2.12-1.67,2.35-.4,.05-.98,.08-1.6,.11-1.23,.06-2.83,.11-3.55,.57-.46,.44-.56,1.38-.62,2.38-.05,.76-.1,1.62-.07,2.24,0,.14,.02,.25,.01,.36l.03,.04Z"/><path class="cls-3" d="M1841.53,6472.73c2.77,1.35,5.94,2.49,5.97,6.68,.03,3.64-1.77,5.19-2.97,6.02-.48,.34-1.88,.7-1.99,1.31-.17,.74,.73,2.24,1.06,3.05,.94,2.27,1.35,3.6,2.36,5.88,.42,.96,1.13,2.22,.81,3.24-.42,1.29-2.65,1.58-3.81,.77-.71-.46-1.04-1.81-1.34-2.54-.73-1.92-1.09-3.6-1.99-5.65-.52-.76-.59-1.86-1.36-2.43-.76-.32-2.24,.18-2.65,.75-.81,1.75-.98,5.81-2.1,7.41-.49,.7-2.19,1.42-3.34,.47-1.19-.96-.13-3.18,.22-4.74,.51-2.23,1.08-4.88,1.48-7.45,.38-2.61,.79-4.96,1.15-7.09,.33-2,.43-4.71,1.17-5.86,.56-.91,1.82-1.11,2.8-1.05,.8,.03,3.23,.6,4.53,1.25Zm1.52,8.68c.36-1.05,.3-2.55-.65-3.62-.83-.91-3.83-1.63-4.8-1.46-.99,2.02-1.21,6.21-1.35,8.41,1.14,.19,2.37-.6,3.47-1.18,.89-.43,2.89-.97,3.34-2.15Z"/></g><path class="cls-1" d="M1535.11,6638.03c2.35-2.67,4.68-5.36,7.09-7.98,2.38-2.64,4.79-5.27,7.21-7.88,4.87-5.2,9.86-10.29,14.93-15.32,10.16-10.03,20.83-19.61,32.09-28.56,11.3-8.89,23.21-17.14,35.85-24.33,1.57-.91,3.19-1.74,4.79-2.62,1.6-.85,3.2-1.76,4.82-2.55,3.24-1.59,6.46-3.25,9.75-4.74l4.92-2.29,4.97-2.18c3.3-1.5,6.68-2.78,10.02-4.16,13.47-5.32,27.27-9.8,41.31-13.44,14.03-3.69,28.31-6.44,42.69-8.38,14.38-1.96,28.88-2.99,43.38-3.33,14.51-.29,29.02,.25,43.45,1.46,14.43,1.27,28.79,3.27,43.01,5.88,14.21,2.67,28.28,6.01,42.16,9.95,13.86,3.98,27.59,8.39,41.06,13.48,6.71,2.56,13.41,5.12,20.03,7.87l4.97,2.05,4.94,2.13c3.28,1.43,6.59,2.81,9.85,4.3,3.26,1.48,6.54,2.92,9.78,4.43l9.7,4.6c6.43,3.14,12.87,6.25,19.19,9.58,6.36,3.26,12.65,6.65,18.92,10.06l9.35,5.23c3.11,1.76,6.19,3.55,9.28,5.35,12.3,7.24,24.46,14.68,36.34,22.56,2.98,1.95,5.92,3.96,8.88,5.94,2.96,1.97,5.9,3.98,8.82,6.02,5.83,4.08,11.62,8.23,17.34,12.46-49.85-27.41-100.6-52.62-153.07-73.15-3.26-1.32-6.57-2.53-9.85-3.79l-4.93-1.87-4.96-1.79c-6.59-2.44-13.24-4.74-19.88-7-13.29-4.43-26.69-8.47-40.21-11.96-13.52-3.51-27.14-6.6-40.87-8.94-13.72-2.44-27.53-4.28-41.38-5.46-13.85-1.24-27.75-1.78-41.63-1.64-13.89,.08-27.76,.97-41.55,2.49-27.6,3.05-54.85,9.19-81.22,18.15-6.56,2.32-13.14,4.64-19.58,7.32-3.25,1.27-6.43,2.69-9.64,4.06-3.17,1.43-6.3,2.86-9.44,4.35-12.45,6.12-24.5,13.23-36.16,21.03-11.66,7.81-22.91,16.34-33.97,25.16-5.52,4.43-10.97,8.96-16.36,13.58-5.46,4.55-10.76,9.27-16.17,13.9Z"/><path class="cls-2" d="M1535.33,6639.58c2.49-2.55,4.96-5.14,7.53-7.61l3.83-3.75,3.89-3.69c2.58-2.47,5.28-4.81,7.93-7.23,2.7-2.34,5.37-4.74,8.12-7.03,10.94-9.25,22.4-17.97,34.43-25.91,12.05-7.91,24.57-15.23,37.74-21.4,6.59-3.14,13.21-5.95,19.93-8.64,3.35-1.36,6.75-2.61,10.13-3.9,3.41-1.2,6.81-2.48,10.25-3.58,27.46-9.24,56.1-15.3,85.08-17.93,14.49-1.35,29.06-1.78,43.61-1.48,14.55,.36,29.07,1.55,43.48,3.46,14.4,1.98,28.69,4.69,42.8,8.08,14.09,3.46,28.03,7.48,41.71,12.22,27.35,9.52,53.77,21.37,79.09,34.95,12.69,6.76,25.15,13.88,37.36,21.38,12.22,7.48,24.26,15.23,36.06,23.3,11.79,8.09,23.45,16.35,34.86,24.93,5.69,4.32,11.39,8.6,17.01,13,5.61,4.41,11.19,8.85,16.71,13.38l-18.25-11.15c-6.05-3.75-12.15-7.42-18.24-11.1-12.21-7.31-24.44-14.54-36.76-21.58l-9.25-5.26-9.3-5.16c-3.09-1.73-6.22-3.4-9.32-5.09-3.11-1.69-6.22-3.38-9.36-5.01l-9.4-4.92-9.44-4.83c-6.33-3.14-12.65-6.27-19.03-9.28-3.18-1.52-6.36-3.04-9.58-4.47-3.21-1.44-6.4-2.95-9.63-4.33l-9.67-4.21-9.74-4.02c-13.04-5.2-26.18-10.08-39.5-14.36-13.33-4.26-26.8-8.02-40.41-11.11-13.59-3.16-27.31-5.71-41.12-7.54-55.19-7.56-111.79-3.84-165.58,11.6-13.44,3.78-26.79,8.33-39.76,13.44-3.25,1.26-6.43,2.7-9.66,4.04l-4.77,2.19c-1.59,.73-3.19,1.44-4.76,2.22-3.15,1.53-6.31,3.05-9.41,4.7-1.55,.82-3.13,1.6-4.67,2.45l-4.62,2.54c-12.34,6.77-24.26,14.37-35.99,22.33-2.94,1.98-5.82,4.05-8.73,6.09-2.86,2.1-5.76,4.15-8.59,6.3-5.76,4.18-11.33,8.61-16.98,12.97Z"/><path class="cls-4" d="M1535.33,6640.78c5.02-4.91,10.25-9.6,15.56-14.23,5.34-4.59,10.88-8.95,16.5-13.22,11.27-8.52,23.23-16.19,35.67-23.08,3.14-1.66,6.26-3.38,9.46-4.93l4.79-2.37,4.85-2.25c3.22-1.53,6.54-2.86,9.8-4.27l9.76-3.99c13.05-5.28,26.25-10.29,39.68-14.83,26.83-9.09,54.71-16.05,83.26-19.29,14.26-1.66,28.66-2.29,43.05-2.05,14.39,.29,28.75,1.59,42.97,3.75,14.2,2.23,28.26,5.31,42.05,9.21,13.78,3.94,27.32,8.61,40.56,13.96,13.22,5.39,26.18,11.32,38.8,17.87l9.43,5.02,9.29,5.2c6.13,3.57,12.22,7.18,18.21,10.92,24.02,14.92,47.07,31.11,69.54,48.01,11.2,8.5,22.28,17.13,33.17,26.01,5.42,4.47,10.86,8.9,16.22,13.44,5.35,4.55,10.68,9.12,15.93,13.77l-35.11-23.17c-11.74-7.64-23.47-15.27-35.27-22.76-23.61-14.95-47.39-29.59-71.67-43.08-6.05-3.4-12.17-6.66-18.3-9.87l-9.22-4.73-9.29-4.52c-6.25-2.92-12.53-5.76-18.85-8.49-6.33-2.7-12.7-5.29-19.13-7.71-6.44-2.39-12.89-4.73-19.4-6.87-6.52-2.12-13.08-4.08-19.68-5.86-13.18-3.65-26.56-6.49-40.03-8.56-13.47-2.13-27.05-3.38-40.67-3.79-13.62-.47-27.26,.03-40.86,1.24-13.61,1.22-27.16,3.31-40.63,5.97-13.47,2.71-26.86,6.04-40.18,9.84-6.65,1.92-13.31,3.88-19.93,5.97-6.63,2.09-13.24,4.26-19.87,6.44l-9.93,3.33-4.87,1.72c-1.62,.57-3.25,1.13-4.86,1.75-6.48,2.36-12.82,5.07-19.15,7.84-12.6,5.67-24.88,12.16-36.82,19.32-5.96,3.59-11.86,7.32-17.63,11.26-5.82,3.88-11.51,7.96-17.2,12.08Z"/><path class="cls-9" d="M1533.84,6640.9c5.09-4.59,10.46-8.87,15.95-13.02,5.52-4.12,11.27-7.92,17.1-11.6,11.7-7.34,24.02-13.69,36.62-19.4,6.32-2.82,12.7-5.48,19.15-7.98,3.21-1.28,6.47-2.43,9.71-3.63l9.73-3.44c6.5-2.27,13.05-4.42,19.64-6.47,6.59-2.05,13.21-4.03,19.9-5.82,26.7-7.28,54.16-12.44,82-14.6,13.91-1.11,27.91-1.38,41.9-.95,13.99,.48,27.96,1.82,41.81,3.9,13.85,2.15,27.57,5.12,41.06,8.86,6.74,1.89,13.43,3.98,20.04,6.27,6.61,2.29,13.18,4.69,19.63,7.39,12.92,5.34,25.55,11.32,37.76,18.03,6.12,3.36,12.1,6.84,18.03,10.4l8.83,5.45,8.73,5.58c23.1,15.13,45.21,31.55,66.53,48.85,10.64,8.67,21.14,17.5,31.41,26.58,5.12,4.57,10.25,9.1,15.31,13.72,5.04,4.64,10.06,9.3,15.01,14.04l-33.41-23.86c-11.18-7.87-22.34-15.72-33.6-23.4-22.51-15.38-45.32-30.21-68.69-43.9l-8.8-5.06-8.86-4.92c-5.93-3.22-11.87-6.43-17.86-9.43-6-3-12.07-5.81-18.17-8.56-6.12-2.72-12.3-5.25-18.54-7.65-12.48-4.76-25.16-8.99-38.06-12.37-12.87-3.47-25.93-6.24-39.1-8.22-13.16-2.07-26.45-3.37-39.78-3.95-13.33-.65-26.7-.5-40.06,.21-13.37,.7-26.71,2.13-40.01,4.01-6.65,.95-13.28,2.08-19.91,3.28-6.63,1.21-13.24,2.54-19.83,4-6.59,1.48-13.18,3-19.75,4.65-6.57,1.65-13.12,3.4-19.67,5.19-13.15,3.6-26.04,7.44-38.81,11.97-12.75,4.52-25.28,9.67-37.5,15.58-6.1,2.97-12.14,6.1-18.02,9.53-5.93,3.36-11.71,7-17.43,10.77Z"/><path class="cls-7" d="M1533.28,6644.6c4.79-4.33,9.83-8.39,14.96-12.34,5.17-3.91,10.49-7.62,15.9-11.2,10.86-7.13,22.21-13.55,33.93-19.27,5.86-2.9,11.79-5.54,17.86-8.08,6.08-2.52,12.27-4.73,18.5-6.78,6.23-2.05,12.54-3.87,18.89-5.49,6.35-1.62,12.73-3.12,19.16-4.39,12.85-2.56,25.8-4.53,38.83-5.85,13.02-1.38,26.11-2.12,39.2-2.34,26.19-.43,52.43,1.36,78.36,5.4,12.96,2.03,25.83,4.68,38.58,7.83,12.72,3.26,25.33,7.01,37.7,11.47,6.19,2.22,12.32,4.6,18.38,7.14,6.07,2.53,12.07,5.21,17.98,8.1,5.87,2.85,11.86,5.92,17.59,9.27,5.72,3.36,11.28,6.91,16.72,10.58,21.69,14.81,41.51,31.52,60.96,48.48,9.7,8.51,19.32,17.07,28.9,25.69l14.42,12.86,14.46,12.85c-5.45-3.46-10.79-7.09-16.15-10.69-5.32-3.66-10.59-7.38-15.86-11.1-10.54-7.45-20.92-15.1-31.32-22.67-20.78-15.15-41.48-30.35-63.08-43.47-5.4-3.27-10.86-6.39-16.39-9.27-5.52-2.92-11.09-5.53-16.91-8.07-11.56-5-23.31-9.6-35.29-13.51-11.96-3.98-24.09-7.44-36.36-10.35-12.26-2.96-24.65-5.41-37.12-7.34-6.23-.99-12.49-1.86-18.76-2.61-6.27-.75-12.56-1.32-18.86-1.86-12.59-1.08-25.24-1.55-37.89-1.71-25.3-.22-50.65,1.35-75.69,5.01-12.52,1.81-24.96,4.21-37.22,7.26-6.13,1.53-12.2,3.27-18.21,5.18-2.99,.96-5.99,2.03-8.99,3.07-2.98,1.1-5.97,2.18-8.93,3.34-11.89,4.55-23.52,9.81-34.95,15.56-5.71,2.9-11.33,5.98-16.87,9.2-5.58,3.19-11.02,6.61-16.43,10.14Z"/><path class="cls-5" d="M1522.11,6655.35c4.74-4.59,9.8-8.85,15.03-12.93,5.24-4.07,10.77-7.75,16.38-11.31,5.61-3.57,11.41-6.84,17.31-9.91,2.94-1.56,5.93-3.02,8.92-4.49,3.01-1.41,6.02-2.84,9.08-4.16,3.04-1.37,6.11-2.64,9.18-3.93,3.09-1.23,6.18-2.48,9.29-3.64,6.22-2.39,12.61-4.63,19.03-6.51,6.43-1.91,12.91-3.63,19.44-5.12,6.53-1.48,13.09-2.78,19.68-3.93,6.59-1.14,13.21-2.07,19.85-2.89,6.64-.81,13.29-1.48,19.96-1.96,6.67-.49,13.34-.85,20.03-1.08,6.68-.21,13.37-.25,20.06-.18,26.75,.28,53.49,2.84,79.85,7.65,13.19,2.37,26.26,5.46,39.19,9.01,6.47,1.76,12.87,3.8,19.25,5.9,6.37,2.12,12.7,4.37,18.96,6.81,12.5,4.91,24.79,10.39,36.71,16.61l4.46,2.36,4.42,2.43c2.94,1.63,5.9,3.35,8.78,5.1,5.78,3.51,11.37,7.26,16.86,11.11,10.98,7.69,21.42,15.96,31.62,24.43,5.08,4.26,10.11,8.56,15.09,12.91,4.96,4.37,9.88,8.78,14.77,13.2,9.75,8.89,19.4,17.86,28.96,26.91l14.37,13.56,14.33,13.63c-5.44-3.74-10.76-7.63-16.12-11.48l-15.87-11.8c-10.56-7.89-20.98-15.94-31.45-23.88-5.22-3.99-10.45-7.96-15.7-11.88-5.24-3.94-10.49-7.84-15.79-11.66-10.55-7.7-21.28-15.08-32.18-22-5.46-3.45-11-6.72-16.59-9.83-2.8-1.56-5.59-3.04-8.46-4.49l-4.32-2.16-4.35-2.09c-5.83-2.74-11.69-5.38-17.63-7.88-5.94-2.48-11.95-4.8-18-7-12.08-4.46-24.4-8.26-36.85-11.63-6.22-1.68-12.48-3.23-18.77-4.66-6.29-1.43-12.62-2.68-18.96-3.89-25.38-4.73-51.15-7.48-77.01-8.5-25.85-.94-51.82-.19-77.53,2.79-12.86,1.47-25.65,3.53-38.25,6.32-6.31,1.42-12.53,2.98-18.75,4.87-6.24,1.87-12.44,3.85-18.58,6-12.29,4.29-24.37,9.21-36.08,14.96-11.7,5.78-22.97,12.49-33.62,20.28Z"/><path class="cls-10" d="M1518.7,6656.42c4.93-3.83,10.02-7.48,15.26-10.93,5.24-3.44,10.66-6.63,16.2-9.62,5.54-2.99,11.22-5.74,17.01-8.25,5.8-2.48,11.72-4.74,17.73-6.74,6.03-1.98,12.08-3.66,18.1-5.46,3.02-.86,6.07-1.63,9.11-2.44l4.57-1.2,4.59-1.1c3.07-.71,6.12-1.49,9.21-2.12l9.25-1.95c6.19-1.18,12.4-2.33,18.65-3.26,24.95-3.95,50.32-5.63,75.68-5.19l9.51,.31c3.17,.1,6.34,.34,9.51,.51,3.17,.16,6.33,.47,9.49,.75l4.74,.42,4.73,.53c12.63,1.38,25.19,3.35,37.63,5.94,24.89,5.14,49.31,12.53,72.84,22.04,11.75,4.79,23.3,10.05,34.59,15.8,5.65,2.86,11.21,5.89,16.74,8.97l8.22,4.74c2.72,1.7,5.48,3.34,8.16,5.08,10.73,6.94,20.82,14.59,30.65,22.47,4.89,3.97,9.71,8,14.49,12.07l7.1,6.17,7.03,6.23c9.32,8.36,18.51,16.82,27.62,25.37l13.68,12.8,13.64,12.87c-5.14-3.57-10.19-7.25-15.26-10.91l-15.04-11.2-29.84-22.6-7.45-5.62-7.49-5.55c-4.99-3.69-10-7.34-15.06-10.9-10.09-7.15-20.36-13.96-30.87-20.12-2.63-1.54-5.3-2.96-7.95-4.44l-8.18-4.26c-5.48-2.78-10.98-5.53-16.57-8.1-11.13-5.2-22.42-10.02-33.89-14.38-22.9-8.78-46.49-15.63-70.44-20.71-11.98-2.56-24.08-4.48-36.22-6.06l-4.56-.58-4.57-.48c-3.05-.32-6.09-.66-9.15-.87-3.05-.24-6.1-.56-9.17-.73l-9.18-.55c-12.26-.52-24.54-.69-36.83-.32-3.07,.12-6.15,.16-9.22,.31l-9.22,.5c-3.07,.19-6.14,.47-9.21,.7-3.08,.19-6.14,.52-9.21,.82-6.15,.53-12.26,1.38-18.39,2.09l-9.18,1.29c-3.07,.4-6.1,.99-9.16,1.45l-4.58,.73-4.57,.83c-3.04,.57-6.1,1.09-9.14,1.7-6.07,1.24-12.19,2.36-18.12,3.93-5.97,1.51-11.87,3.27-17.71,5.28-5.84,1.98-11.63,4.19-17.3,6.67-5.68,2.47-11.26,5.19-16.79,8.04-5.51,2.89-10.89,6.04-16.24,9.27Z"/></svg>