<?xml version="1.0" encoding="UTF-8"?>
<svg width="166px" height="64px" viewBox="0 0 166 64" version="1.1" xmlns="http://www.w3.org/2000/svg" xmlns:xlink="http://www.w3.org/1999/xlink">
    <title>img_header_logo</title>
    <g id="Symbols" stroke="none" stroke-width="1" fill="none" fill-rule="evenodd">
        <g id="img/header/logo" fill="#000000">
            <path d="M97.9344169,34.6004193 C96.279228,33.6078198 94.3970068,32.8350355 92.2774535,32.2809596 C90.1625021,31.7257768 88.252888,31.3676087 86.5411602,31.2015851 L86.5411602,33.4156752 C87.8864805,33.9113109 89.0617457,34.572306 90.0483285,35.4205756 C92.4161711,37.4564671 93.6039274,40.0555105 93.6039274,43.2223544 C93.6039274,47.4685727 92.4922138,50.6861091 90.2795246,52.8705364 C88.0642057,55.0573986 84.8690973,56.1522686 80.6911316,56.1522686 C78.1409618,56.1522686 76.149169,55.7496061 74.7196977,54.9445026 C73.2904455,54.1420554 72.5760386,52.9477926 72.5760386,51.3630425 L72.5760386,34.4255411 L63.2650809,34.4255411 C62.2631581,45.2974274 53.1842731,53.8348011 42.1666279,53.8348011 C30.4753365,53.8348011 20.9645202,44.2300066 20.9645202,32.4230758 C20.9645202,20.6159235 30.4753365,11.0071444 42.1666279,11.0071444 C52.1448767,11.0071444 60.5321457,18.0148879 62.7704747,27.4115995 L72.5760386,27.4115995 L72.5760386,9.51160429 C73.4999464,9.48592598 74.6322595,9.45294263 75.9940156,9.41442517 C77.3467868,9.37723589 78.4771275,9.35819853 79.3729851,9.35819853 C83.2331931,9.35819853 86.0546622,10.2064682 87.8487879,11.9023434 C89.6405029,13.5982187 90.5332925,15.9373798 90.5332925,18.9220405 C90.5332925,20.7071258 90.3283935,22.2511448 89.9288954,23.5512199 C89.515153,24.8517377 88.7978972,26.0515346 87.7626646,27.1481755 C87.4012974,27.5362279 86.993691,27.8864269 86.5411602,28.2040853 L86.5411602,30.8779499 C88.480797,30.5277509 90.2768949,30.0256957 91.9406303,29.377097 C93.6157612,28.7284983 95.0866506,27.9318066 96.3780616,26.9881288 C97.7562534,25.9948652 98.8215087,24.8083502 99.574704,23.4276984 C100.334254,22.0492602 100.711619,20.4724792 100.711619,18.7039963 C100.711619,16.6731962 100.17932,14.9507572 99.1140649,13.5338015 C98.0450842,12.1179527 96.6870536,10.9965189 95.0342753,10.1719353 C93.2684192,9.27385856 91.4098654,8.64828182 89.4614629,8.29365551 C87.5128413,7.93947194 85.4706455,7.76370834 83.3414499,7.76370834 L55.7918584,7.76370834 L55.7918584,8.81895403 C56.493555,8.86366971 57.3648685,8.98165711 58.4036075,9.17269488 C59.4401549,9.36174036 60.8122107,9.64265221 61.5303431,10.2049186 C62.7505326,11.119155 63.0277488,12.0037285 63.3255645,13.1267118 C63.5054811,13.798111 63.6189972,14.2556719 63.6189972,15.0559054 L63.6189972,19.1312302 C59.1898934,11.8532005 51.2424449,7 42.1666279,7 C28.2681259,7 17,18.3825747 17,32.4230758 C17,46.4611418 28.2681259,57.842831 42.1666279,57.842831 C51.2424449,57.842831 59.1898934,52.9902947 63.6189972,45.7142572 L63.6189972,51.1671347 C63.6189972,52.0437391 63.4338212,52.7540985 63.0682903,53.3090599 C62.7034168,53.8646854 62.5186791,54.2348072 61.3637942,55.0748864 C60.8801451,55.4275204 59.7362175,55.9083246 58.4423958,56.0623945 C57.154491,56.2155789 56.1709762,56.3154144 55.5003979,56.3614582 L55.5003979,58 L83.7617666,58 C86.2860775,58 88.7323734,57.7179813 91.10175,57.1504021 C93.4698118,56.5834871 95.593748,55.7584607 97.4715863,54.6724453 C99.4074977,53.5629652 100.976344,52.1473378 102.184042,50.4251201 C103.391522,48.7029025 103.989564,46.6714383 103.989564,44.3344908 C103.989564,42.0442512 103.415189,40.0991193 102.269508,38.4951104 C101.118568,36.8880025 99.675729,35.5905838 97.9344169,34.6004193 L97.9344169,34.6004193 Z M82.1479958,29.5951413 C82.3875194,29.5712339 82.6071009,29.5550742 82.8247101,29.5550742 C83.2840343,29.5550742 83.6495653,29.719991 83.6495653,30.1410267 C83.6495653,30.4983094 83.3215078,30.7697025 82.4935847,30.7584129 L82.1479958,30.7544284 L82.1479958,29.5951413 Z M82.7870175,31.0508358 L83.9806907,32.5601005 L84.7056165,32.5601005 L84.7056165,32.2501899 L84.2300757,32.2501899 L83.2198254,30.99638 C83.742482,30.8704235 84.076018,30.5718025 84.076018,30.1002956 C84.076018,29.4944203 83.4705252,29.2449422 82.8203273,29.2449422 C82.4854764,29.2449422 82.1418598,29.3126799 81.8094195,29.3126799 C81.5854552,29.3126799 81.4068534,29.2841238 81.2034885,29.2449422 L81.2034885,29.5389146 L81.7408277,29.5951413 L81.7408277,32.2501899 L81.2034885,32.2501899 L81.2034885,32.5601005 L82.7729923,32.5601005 L82.7729923,32.2501899 L82.1479958,32.2501899 L82.1479958,31.0508358 L82.7870175,31.0508358 Z M76.3095818,31.2283703 L76.9512332,29.7091441 L77.6145798,31.2283703 L76.3095818,31.2283703 Z M77.4953659,32.5601005 L78.8214016,32.5601005 L78.8214016,32.2501899 L78.4926867,32.2501899 L76.9512332,28.9348103 L75.4590869,32.2501899 L75.133221,32.2501899 L75.133221,32.5601005 L76.4439166,32.5601005 L76.4439166,32.2501899 L75.8778697,32.2501899 L76.1864233,31.538945 L77.7486954,31.538945 L78.0642617,32.2501899 L77.4953659,32.2501899 L77.4953659,32.5601005 Z M69.3704114,32.2501899 L69.3704114,32.5601005 L72.6132929,32.5601005 L72.6132929,31.4827184 L72.2052482,31.4827184 L72.2052482,31.5883093 C72.2052482,32.2025965 72.1570367,32.2501899 71.6622113,32.2501899 L70.4330369,32.2501899 L70.4330369,30.9087196 L71.3363453,30.9087196 L71.3363453,31.4278199 L71.738254,31.4278199 L71.738254,30.1359353 L71.3363453,30.1359353 L71.3363453,30.5979235 L70.4330369,30.5979235 L70.4330369,29.5550742 L71.545408,29.5550742 C72.0634626,29.5550742 72.0862535,29.6051027 72.0862535,30.0628849 L72.0862535,30.2063293 L72.4890387,30.2063293 L72.4890387,29.2449422 L69.3704114,29.2449422 L69.3704114,29.5550742 L70.0295942,29.5550742 L70.0295942,32.2501899 L69.3704114,32.2501899 Z M64.665187,30.9306347 L65.1825842,30.9306347 C66.0790992,30.9306347 66.322129,31.2799483 66.322129,31.6370096 C66.322129,32.048748 65.9785124,32.3491399 65.4468709,32.3057524 L64.665187,32.2386789 L64.665187,30.9306347 Z M64.665187,29.6150641 C64.8939726,29.5829662 65.1370024,29.5550742 65.3760877,29.5550742 C65.7212383,29.5550742 65.9953865,29.6940913 65.9953865,30.0026737 C65.9953865,30.3001879 65.7584926,30.6209454 64.9489775,30.6209454 L64.665187,30.6209454 L64.665187,29.6150641 Z M63.5661837,32.3595441 L63.6612919,32.6203117 C63.9104577,32.5662987 64.2231751,32.4939125 64.5352351,32.4939125 C64.8939726,32.4939125 65.2603801,32.5601005 65.6224047,32.5601005 C66.2585775,32.5601005 66.7529646,32.260594 66.7529646,31.6438719 C66.7529646,31.1615181 66.4314815,30.8513861 65.8991826,30.7097127 C66.1991897,30.5664897 66.4242498,30.2734028 66.4242498,29.98585 C66.4242498,29.511244 65.9235075,29.2449422 65.405672,29.2449422 C65.039922,29.2449422 64.6763633,29.3126799 64.3106133,29.3126799 C64.0664877,29.3126799 63.8164453,29.2679642 63.5721006,29.2449422 L63.5721006,29.5829662 L64.2569232,29.6221478 L64.2569232,32.2501899 L63.5661837,32.3595441 Z M53.4338772,32.2501899 L53.4338772,32.5601005 L56.6763205,32.5601005 L56.6763205,31.4827184 L56.2722204,31.4827184 L56.2722204,31.5883093 C56.2722204,32.2025965 56.2222557,32.2501899 55.7278686,32.2501899 L54.4995708,32.2501899 L54.4995708,30.9087196 L55.3982772,30.9087196 L55.3982772,31.4278199 L55.8052262,31.4278199 L55.8052262,30.1359353 L55.3982772,30.1359353 L55.3982772,30.5979235 L54.4995708,30.5979235 L54.4995708,29.5550742 L55.6053675,29.5550742 C56.1267093,29.5550742 56.1470896,29.6051027 56.1470896,30.0628849 L56.1470896,30.2063293 L56.5525046,30.2063293 L56.5525046,29.2449422 L53.4338772,29.2449422 L53.4338772,29.5550742 L54.0921835,29.5550742 L54.0921835,32.2501899 L53.4338772,32.2501899 Z M50.3253305,29.1738842 L50.2308798,29.391043 C49.9153135,29.25756 49.6860897,29.1794183 49.3282288,29.1794183 C48.539094,29.1794183 47.6504682,29.6431774 47.6504682,30.9018573 C47.6504682,31.7364023 48.1757545,32.6258459 49.297987,32.6258459 C49.7908401,32.6258459 50.2966227,32.410458 50.6470328,32.1251188 L50.6470328,31.4278199 L51.0445586,31.4278199 L51.0445586,31.118352 L49.3643874,31.118352 L49.3643874,31.4278199 L50.2372349,31.4278199 L50.2372349,31.5424868 C50.2372349,31.691908 50.2593684,31.8906936 50.1554945,32.0128869 C49.978865,32.2209698 49.5375106,32.3179275 49.2396949,32.3179275 C48.7038897,32.3179275 48.0795506,31.8760835 48.0795506,30.8416461 C48.0795506,29.7432343 48.8504965,29.4886648 49.3282288,29.4886648 C50.0314594,29.4886648 50.1594391,29.8370929 50.206774,30.340255 L50.6176676,30.2884556 C50.5856726,30.1359353 50.5624435,29.9820868 50.5624435,29.8207119 C50.5624435,29.6310023 50.5992595,29.4454987 50.6669748,29.2635369 L50.3253305,29.1738842 Z M44.2807027,32.5601005 L44.701896,32.5601005 L44.701896,29.5561811 L45.111913,29.5561811 L45.111913,29.2449422 L43.6738951,29.2449422 L43.6738951,29.5561811 L44.2973576,29.5561811 L44.2973576,31.9254478 L44.2807027,31.9254478 L42.4600607,29.2449422 L41.5203746,29.2449422 L41.5203746,29.5561811 L42.0088448,29.5561811 L42.0088448,32.2501899 L41.5203746,32.2501899 L41.5203746,32.5601005 L43.0182185,32.5601005 L43.0182185,32.2501899 L42.4131641,32.2501899 L42.4131641,29.8479398 L44.2807027,32.5601005 Z M36.7402032,31.2283703 L37.3862375,29.7091441 L38.0460777,31.2283703 L36.7402032,31.2283703 Z M37.9329998,32.5601005 L39.2603504,32.5601005 L39.2603504,32.2501899 L38.930759,32.2501899 L37.3862375,28.9348103 L35.8945295,32.2501899 L35.5664721,32.2501899 L35.5664721,32.5601005 L36.8824272,32.5601005 L36.8824272,32.2501899 L36.3139696,32.2501899 L36.6177022,31.538945 L38.182604,31.538945 L38.4972937,32.2501899 L37.9329998,32.2501899 L37.9329998,32.5601005 Z M30.772933,29.5951413 C31.006978,29.5712339 31.2289701,29.5550742 31.4463602,29.5550742 C31.9074375,29.5550742 32.2705579,29.719991 32.2705579,30.1410267 C32.2705579,30.4983094 31.9451302,30.7697025 31.1112902,30.7584129 L30.772933,30.7544284 L30.772933,29.5951413 Z M31.4128312,31.0508358 L32.602779,32.5601005 L33.3252942,32.5601005 L33.3252942,32.2501899 L32.853698,32.2501899 L31.8381883,30.99638 C32.3601874,30.8704235 32.6921894,30.5718025 32.6921894,30.1002956 C32.6921894,29.4944203 32.0906413,29.2449422 31.4393476,29.2449422 C31.104935,29.2449422 30.7628524,29.3126799 30.4277824,29.3126799 C30.2049138,29.3126799 30.0289417,29.2841238 29.8244811,29.2449422 L29.8244811,29.5389146 L30.3631352,29.5951413 L30.3631352,32.2501899 L29.8244811,32.2501899 L29.8244811,32.5601005 L31.3950806,32.5601005 L31.3950806,32.2501899 L30.772933,32.2501899 L30.772933,31.0508358 L31.4128312,31.0508358 Z M26.747491,30.9018573 C26.747491,31.5336322 26.4457307,32.3179275 25.6007144,32.3179275 C24.7528493,32.3179275 24.4473636,31.5336322 24.4473636,30.9018573 C24.4473636,30.2734028 24.7528493,29.4886648 25.6007144,29.4886648 C26.4457307,29.4886648 26.747491,30.2734028 26.747491,30.9018573 L26.747491,30.9018573 Z M24.024198,30.9018573 C24.024198,31.7426006 24.5058749,32.6258459 25.6007144,32.6258459 C26.6896372,32.6258459 27.1770117,31.7426006 27.1770117,30.9018573 C27.1770117,30.0628849 26.6896372,29.1794183 25.6007144,29.1794183 C24.5058749,29.1794183 24.024198,30.0628849 24.024198,30.9018573 L24.024198,30.9018573 Z M132.487607,44.2091984 L132.577456,44.4593405 L133.884645,43.8275656 L133.785154,43.6104067 C133.393764,42.7554961 132.725816,41.7653317 131.800374,40.6742249 L131.681817,40.5318874 L130.541177,41.0828642 L130.724819,41.3190604 C131.620676,42.4734775 132.209076,43.4450473 132.487607,44.2091984 L132.487607,44.2091984 Z M143.907599,55.8917223 C140.543531,55.8917223 138.038286,55.7119741 136.434815,55.3436232 C138.095701,54.9234729 139.654248,54.3488101 141.064654,53.6045818 L141.30352,53.358867 L140.608398,52.2655465 L143.854347,52.2655465 L143.111232,53.3292041 L143.412774,53.5040822 C145.182136,54.2018239 146.874141,54.9965233 148.443864,55.8098173 C146.974509,55.8547544 145.455627,55.8917223 143.907599,55.8917223 L143.907599,55.8917223 Z M140.429138,51.3001749 L144.24508,51.3001749 L144.24508,49.8559914 L140.429138,49.8559914 L140.429138,51.3001749 Z M137.783861,46.0002604 C137.357846,46.0002604 137.088738,45.9473543 137.088738,45.6580305 L137.088738,44.5540846 L141.306369,44.5540846 L141.295631,44.6258068 C141.192195,45.2555895 140.979188,46.0002604 140.543531,46.0002604 L137.783861,46.0002604 Z M137.088738,43.5907053 L140.429138,43.5907053 L140.429138,42.1440867 L137.088738,42.1440867 L137.088738,43.5907053 Z M143.771073,45.6580305 L143.771073,44.5540846 L147.901923,44.5540846 L147.88724,44.6258068 C147.786215,45.2555895 147.572331,46.0002604 147.1404,46.0002604 L144.401329,46.0002604 C143.975314,46.0002604 143.771073,45.9473543 143.771073,45.6580305 L143.771073,45.6580305 Z M143.771073,43.5907053 L147.11213,43.5907053 L147.11213,42.1440867 L143.771073,42.1440867 L143.771073,43.5907053 Z M149.674134,55.7985277 C149.403711,55.8089319 149.127153,55.8166796 148.850594,55.8261983 L149.37851,54.9338771 L149.154545,54.8156683 C147.824565,54.1188121 146.101442,53.2382232 144.037113,52.4200591 L143.936964,52.2655465 L149.496628,52.2655465 L149.496628,51.3001749 L145.67981,51.3001749 L145.67981,49.8559914 L148.541821,49.8559914 L148.541821,48.4102583 L145.67981,48.4102583 L145.67981,47.4462149 L147.183133,47.4462149 C148.236554,47.4462149 148.900997,46.6745374 149.150601,45.2750696 L149.292387,45.0649944 L148.541821,44.6200513 L148.541821,41.180486 L142.8178,41.180486 L142.8178,45.6580305 C142.8178,46.4188611 142.906334,47.4462149 144.401329,47.4462149 L144.245299,47.4462149 L144.245299,48.4102583 L140.429138,48.4102583 L140.429138,47.4462149 L140.589113,47.4462149 C141.647137,47.4462149 142.306977,46.6745374 142.557458,45.2750696 L142.699901,45.0649944 L141.861678,44.5815338 L141.861678,41.180486 L136.136999,41.180486 L136.136999,45.6580305 C136.136999,46.4188611 136.2801,47.4462149 137.783861,47.4462149 L139.000325,47.4462149 L139.000325,48.4102583 L136.136999,48.4102583 L136.136999,49.8559914 L139.000325,49.8559914 L139.000325,51.3001749 L135.183069,51.3001749 L135.183069,52.2655465 L140.47998,52.2655465 L140.38794,52.4340051 C139.015884,53.2003698 137.415262,53.8564949 135.631217,54.2700042 L135.328141,54.3676261 L135.730708,55.1470513 C135.677017,55.1295635 135.622451,55.1209303 135.570733,55.1016715 C134.178954,54.6049291 133.689388,54.3596569 133.516046,54.2452114 C134.452445,52.7370534 135.092343,51.2136213 135.424784,49.6118261 L135.486801,49.3740804 L132.373433,49.3740804 L132.511274,49.1854776 C133.586172,48.0919358 134.55347,46.6110057 135.382051,45.0417511 L135.569418,44.5540846 L129.394838,44.5540846 L130.144747,46.0002604 L133.363303,46.0002604 C132.896747,46.483721 132.357655,47.482076 131.748875,48.180039 L131.634044,48.3071023 L132.256849,49.2800003 L132.256849,49.2153618 L133.008072,50.3367956 L133.812328,50.3367956 C133.034588,53.2309181 131.561727,55.2712369 129.419821,56.6005321 L129.178106,56.782494 L130.054898,57.8153818 L130.229993,57.7117831 C131.293276,57.022232 132.182559,56.1903433 132.876148,55.2265212 C133.798522,55.8149087 134.894895,56.2757901 136.143573,56.594998 C137.470047,56.9230606 140.162441,57.08842 144.140548,57.08842 C146.016853,57.08842 147.819306,57.0660622 149.499477,57.0195756 L149.678079,57.0133774 L150,55.7867954 L149.674134,55.7985277 Z M123.22771,53.0296976 C122.559761,52.0587919 122.007739,50.8193707 121.580848,49.8559914 L124.567332,49.8559914 C124.287267,50.8193707 123.841968,51.9766656 123.22771,53.0296976 L123.22771,53.0296976 Z M118.653095,56.5881357 L118.481505,56.6669416 L118.481505,49.8559914 L119.85137,49.8559914 C119.499426,50.8193707 119.097736,51.230445 118.669311,51.7743382 L118.513062,52.0320067 L119.611627,52.8435299 L119.751002,52.6788345 C120.308283,51.9551932 120.640724,51.484129 120.831817,51.1573947 C121.213783,52.1263081 121.735782,53.0595818 122.402197,53.9390639 C121.420874,55.0799778 120.170442,55.9727418 118.653095,56.5881357 L118.653095,56.5881357 Z M116.100953,48.8928334 L116.100953,47.9274618 L118.959238,47.9274618 L118.959238,46.9647466 L111.32363,46.9647466 L111.32363,47.9274618 L114.666222,47.9274618 L114.666222,48.8928334 L110.374082,48.8928334 L110.374082,46.483721 L121.291798,46.483721 L121.154615,46.5341922 C120.85395,47.662931 120.393311,48.6225471 119.913168,49.5551567 L119.913168,48.8928334 L116.100953,48.8928334 Z M117.0505,54.6558429 C116.100953,54.7722808 115.144611,54.9026646 113.709881,55.0516431 L113.709881,49.8559914 L117.0505,49.8559914 L117.0505,54.6558429 Z M125.12549,54.8617121 C124.463458,54.3069721 124.202459,54.1677337 124.104283,54.0548377 C124.959599,52.8129815 125.59862,51.3001749 126.022662,49.8559914 L127.55031,49.8559914 L127.55031,48.4102583 L122.057704,48.4102583 C122.332071,47.9274618 122.521411,47.1522425 122.623313,46.6745374 L122.673496,46.5080711 L121.858722,46.483721 L127.55031,46.483721 L127.55031,45.0366597 L108.939352,45.0366597 L108.939352,49.2456888 C108.939352,52.3363832 108.415819,54.9414035 107.308488,56.987035 L107.206805,57.2081783 L108.503038,57.8333124 L108.587627,57.630985 C109.784149,55.3965293 110.374082,52.5736862 110.374082,49.2456888 L110.374082,49.8559914 L112.281286,49.8559914 L112.281286,55.1645391 C111.32363,55.2150103 110.858389,55.1581195 110.488913,55.1581195 L109.873559,55.1581195 L110.045148,56.4876361 L110.264949,56.4942771 C112.768661,56.3317954 115.144611,56.1113161 117.0505,55.7985277 L117.0505,57.5672319 L118.481505,57.5672319 L118.481505,56.8508957 L119.205555,57.793024 L119.364653,57.7179813 C120.896026,57.0231174 122.213296,56.0789968 123.303752,54.9059851 C124.38895,55.9424148 125.665897,56.8829935 127.115968,57.708684 L127.315169,57.8271141 L128.015551,56.5748538 L127.770111,56.4670492 C126.773228,56.0212206 125.879781,55.481312 125.12549,54.8617121 L125.12549,54.8617121 Z M118.959238,43.5907053 L125.160334,43.5907053 L125.160334,42.1440867 L118.959238,42.1440867 L118.959238,43.5907053 Z M111.32363,43.5907053 L117.529547,43.5907053 L117.529547,42.1440867 L111.32363,42.1440867 L111.32363,43.5907053 Z M109.892406,44.5540846 L126.593969,44.5540846 L126.593969,41.180486 L109.892406,41.180486 L109.892406,44.5540846 Z" id="Fill-1"></path>
        </g>
    </g>
</svg>