<?xml version="1.0" encoding="UTF-8"?><svg id="_層_2" xmlns="http://www.w3.org/2000/svg" xmlns:xlink="http://www.w3.org/1999/xlink" viewBox="0 0 640 1430"><defs><style>.cls-1{fill:none;fill-rule:evenodd;stroke:#ffe9bc;stroke-miterlimit:10;stroke-width:35px;}.cls-2{fill:url(#_命名漸層_3);}</style><linearGradient id="_命名漸層_3" x1="224.72" y1="1261.68" x2="643.85" y2="1261.68" gradientTransform="translate(131.43 40.3) rotate(7.31) scale(1.08 .93)" gradientUnits="userSpaceOnUse"><stop offset="0" stop-color="#ffe9bc"/><stop offset=".1" stop-color="#ffe9bd" stop-opacity=".98"/><stop offset=".21" stop-color="#ffeac0" stop-opacity=".94"/><stop offset=".31" stop-color="#ffecc5" stop-opacity=".85"/><stop offset=".42" stop-color="#ffeecd" stop-opacity=".74"/><stop offset=".52" stop-color="#fff1d7" stop-opacity=".59"/><stop offset=".63" stop-color="#fff5e3" stop-opacity=".42"/><stop offset=".74" stop-color="#fffaf1" stop-opacity=".21"/><stop offset=".83" stop-color="#fff" stop-opacity="0"/></linearGradient></defs><path class="cls-1" d="M-58.71,175.14s100.97,69.76,182.05-1.2c146.93-128.59,362.94-98.25,469.14-6.87,106.2,91.38-9.88,209.35-98.03,236.57-53.53,16.52-177.96,54.4-279.08,18.04-105.42-37.91-298.08,147.24-82.02,223.69,170.59,60.36,288.66-2.27,349.11-20.44,60.45-18.17,227.15,68.22,163.05,203.36-64.11,135.14-236.23,122.54-361.11,85.27-125.48-37.44-244.04,76.89-260.08,160.81-41.22,215.63,161.07,270.81,216.07,190.06"/><path class="cls-2" d="M214.07,1307.15c248.15-75.7,431.7,85.63,431.7,85.63,0,0,59.21-166.55,14.96-184.44-44.25-17.89-111.93-46.05-206.81-42.67-168.17,5.99-233.2,95.56-233.2,95.56l-6.65,45.93Z"/></svg>